solid OpenSCAD_Model
  facet normal 0 -1 0
    outer loop
      vertex -8 -8 0
      vertex 1.5 -8 1
      vertex -1.5 -8 1
    endloop
  endfacet
  facet normal 0 -1 0
    outer loop
      vertex -8 -8 0
      vertex -1.5 -8 1
      vertex -1.5 -8 4
    endloop
  endfacet
  facet normal 0 -1 0
    outer loop
      vertex -8 -8 0
      vertex -1.5 -8 4
      vertex 8 -8 10
    endloop
  endfacet
  facet normal 0 0 1
    outer loop
      vertex -8 -8 10
      vertex -2.0627186847572117 -6.446438743051327 10
      vertex -2.25166604983954 -6.119912853410034 10
    endloop
  endfacet
  facet normal 0 0 1
    outer loop
      vertex -8 -8 10
      vertex -2.25166604983954 -6.119912853410034 10
      vertex -2.4020867845293457 -5.767702543507058 10
    endloop
  endfacet
  facet normal 0 0 1
    outer loop
      vertex -8 -8 10
      vertex -2.4020867845293457 -5.767702543507058 10
      vertex -2.511407148351578 -5.395834229395986 10
    endloop
  endfacet
  facet normal 0 0 1
    outer loop
      vertex -8 -8 10
      vertex -2.511407148351578 -5.395834229395986 10
      vertex -2.577756639571907 -5.010670681032632 10
    endloop
  endfacet
  facet normal 0 0 1
    outer loop
      vertex -8 -8 10
      vertex -2.577756639571907 -5.010670681032632 10
      vertex -2.6 -4.618802153517008 10
    endloop
  endfacet
  facet normal 0 0 1
    outer loop
      vertex -8 -8 10
      vertex -2.6 -4.618802153517008 10
      vertex -2.577756639571907 -4.226933626001381 10
    endloop
  endfacet
  facet normal 0 0 1
    outer loop
      vertex -8 -8 10
      vertex -2.577756639571907 -4.226933626001381 10
      vertex -2.511407148351578 -3.841770077638026 10
    endloop
  endfacet
  facet normal 0 0 1
    outer loop
      vertex -8 -8 10
      vertex -2.511407148351578 -3.841770077638026 10
      vertex -2.4020867845293457 -3.4699017635269556 10
    endloop
  endfacet
  facet normal 0 0 1
    outer loop
      vertex -8 -8 10
      vertex -2.4020867845293457 -3.4699017635269556 10
      vertex -2.25166604983954 -3.117691453623979 10
    endloop
  endfacet
  facet normal -1 0 0
    outer loop
      vertex -8 -8 0
      vertex -8 -8 10
      vertex -8 8 10
    endloop
  endfacet
  facet normal 0 0 1
    outer loop
      vertex -8 -8 10
      vertex -2.25166604983954 -3.117691453623979 10
      vertex -8 8 10
    endloop
  endfacet
  facet normal 0 -1 0
    outer loop
      vertex -8 -8 0
      vertex 8 -8 10
      vertex -8 -8 10
    endloop
  endfacet
  facet normal 0 0 1
    outer loop
      vertex -8 -8 10
      vertex -1.8384776310850237 -6.741693263929093 10
      vertex -2.0627186847572117 -6.446438743051327 10
    endloop
  endfacet
  facet normal 0 0 1
    outer loop
      vertex -8 -8 10
      vertex -1.5827797154226737 -7.0006245293311 10
      vertex -1.8384776310850237 -6.741693263929093 10
    endloop
  endfacet
  facet normal 0 0 1
    outer loop
      vertex -8 -8 10
      vertex -1.3 -7.218802153517006 10
      vertex -1.5827797154226737 -7.0006245293311 10
    endloop
  endfacet
  facet normal 0 0 1
    outer loop
      vertex -8 -8 10
      vertex -0.9949769241492334 -7.392493056846728 10
      vertex -1.3 -7.218802153517006 10
    endloop
  endfacet
  facet normal 0 0 1
    outer loop
      vertex -8 -8 10
      vertex -0.6729295172665539 -7.518725339808075 10
      vertex -0.9949769241492334 -7.392493056846728 10
    endloop
  endfacet
  facet normal 0 0 1
    outer loop
      vertex -8 -8 10
      vertex -0.3393680997721341 -7.595339133041378 10
      vertex -0.6729295172665539 -7.518725339808075 10
    endloop
  endfacet
  facet normal 0 0 1
    outer loop
      vertex -8 -8 10
      vertex 0 -7.62102355330306 10
      vertex -0.3393680997721341 -7.595339133041378 10
    endloop
  endfacet
  facet normal -1 0 0
    outer loop
      vertex -8 -8 0
      vertex -8 8 10
      vertex -8 8 0
    endloop
  endfacet
  facet normal 0 0 -1
    outer loop
      vertex -8 -8 0
      vertex -8 8 0
      vertex 8 8 0
    endloop
  endfacet
  facet normal 0 1 0
    outer loop
      vertex -8 8 0
      vertex -8 8 10
      vertex 8 8 0
    endloop
  endfacet
  facet normal 0 0 1
    outer loop
      vertex -8 8 10
      vertex -2.25166604983954 -3.117691453623979 10
      vertex -2.0627186847572117 -2.7911655639826876 10
    endloop
  endfacet
  facet normal 0 0 1
    outer loop
      vertex -8 8 10
      vertex -2.0627186847572117 -2.7911655639826876 10
      vertex -1.8384776310850237 -2.4959110431049183 10
    endloop
  endfacet
  facet normal 0 0 1
    outer loop
      vertex -8 8 10
      vertex -1.8384776310850237 -2.4959110431049183 10
      vertex -1.5827797154226737 -2.2369797777029135 10
    endloop
  endfacet
  facet normal 0 0 1
    outer loop
      vertex -8 8 10
      vertex -1.5827797154226737 -2.2369797777029135 10
      vertex -1.3 -2.0188021535170066 10
    endloop
  endfacet
  facet normal 0 0 1
    outer loop
      vertex -8 8 10
      vertex -1.3 -2.0188021535170066 10
      vertex -0.9949769241492334 -1.8451112501872866 10
    endloop
  endfacet
  facet normal 0 0 1
    outer loop
      vertex -8 8 10
      vertex -0.9949769241492334 -1.8451112501872866 10
      vertex -0.6729295172665539 -1.7188789672259381 10
    endloop
  endfacet
  facet normal 0 0 1
    outer loop
      vertex -8 8 10
      vertex -0.6729295172665539 -1.7188789672259381 10
      vertex -0.3393680997721341 -1.6422651739926353 10
    endloop
  endfacet
  facet normal 0 0 1
    outer loop
      vertex -8 8 10
      vertex -0.3393680997721341 -1.6422651739926353 10
      vertex 0 -1.6165807537309527 10
    endloop
  endfacet
  facet normal 0 0 1
    outer loop
      vertex -8 8 10
      vertex 0 -1.6165807537309527 10
      vertex 0.3393680997721341 -1.6422651739926353 10
    endloop
  endfacet
  facet normal 0 0 1
    outer loop
      vertex -8 8 10
      vertex 0.6729295172665539 -1.7188789672259392 10
      vertex 0.9949769241492334 -1.8451112501872862 10
    endloop
  endfacet
  facet normal 0 0 1
    outer loop
      vertex -8 8 10
      vertex 0.3393680997721341 -1.6422651739926353 10
      vertex 0.6729295172665539 -1.7188789672259392 10
    endloop
  endfacet
  facet normal 0 0 1
    outer loop
      vertex -8 8 10
      vertex 0.9949769241492334 -1.8451112501872862 10
      vertex 1.3 -2.0188021535170066 10
    endloop
  endfacet
  facet normal 0 0 1
    outer loop
      vertex -8 8 10
      vertex 1.3 -2.0188021535170066 10
      vertex 1.5827797154226737 -2.2369797777029126 10
    endloop
  endfacet
  facet normal 0 0 1
    outer loop
      vertex -8 8 10
      vertex 1.5827797154226737 -2.2369797777029126 10
      vertex 1.8384776310850237 -2.4959110431049187 10
    endloop
  endfacet
  facet normal 0 -1 0
    outer loop
      vertex -8 -8 0
      vertex 8 -8 0
      vertex 1.5 -8 1
    endloop
  endfacet
  facet normal 0 -1 0
    outer loop
      vertex 8 -8 0
      vertex 1.5 -8 4
      vertex 1.5 -8 1
    endloop
  endfacet
  facet normal 0 0 -1
    outer loop
      vertex -8 -8 0
      vertex 8 8 0
      vertex 8 -8 0
    endloop
  endfacet
  facet normal 0 -1 0
    outer loop
      vertex 8 -8 0
      vertex 8 -8 10
      vertex 1.5 -8 4
    endloop
  endfacet
  facet normal 1 0 0
    outer loop
      vertex 8 -8 0
      vertex 8 8 0
      vertex 8 -8 10
    endloop
  endfacet
  facet normal 0 -1 0
    outer loop
      vertex 8 -8 10
      vertex -1.5 -8 4
      vertex 1.5 -8 4
    endloop
  endfacet
  facet normal 0 0 1
    outer loop
      vertex -8 -8 10
      vertex 8 -8 10
      vertex 0 -7.62102355330306 10
    endloop
  endfacet
  facet normal 0 0 1
    outer loop
      vertex 8 -8 10
      vertex 0.3393680997721341 -7.595339133041378 10
      vertex 0 -7.62102355330306 10
    endloop
  endfacet
  facet normal 0 0 1
    outer loop
      vertex 8 -8 10
      vertex 0.6729295172665539 -7.518725339808075 10
      vertex 0.3393680997721341 -7.595339133041378 10
    endloop
  endfacet
  facet normal 0 0 1
    outer loop
      vertex 8 -8 10
      vertex 0.9949769241492334 -7.392493056846727 10
      vertex 0.6729295172665539 -7.518725339808075 10
    endloop
  endfacet
  facet normal 0 0 1
    outer loop
      vertex 8 -8 10
      vertex 1.3 -7.218802153517006 10
      vertex 0.9949769241492334 -7.392493056846727 10
    endloop
  endfacet
  facet normal 0 0 1
    outer loop
      vertex 8 -8 10
      vertex 1.5827797154226737 -7.0006245293311 10
      vertex 1.3 -7.218802153517006 10
    endloop
  endfacet
  facet normal 0 0 1
    outer loop
      vertex 8 -8 10
      vertex 1.8384776310850237 -6.741693263929093 10
      vertex 1.5827797154226737 -7.0006245293311 10
    endloop
  endfacet
  facet normal 0 0 1
    outer loop
      vertex 8 -8 10
      vertex 2.0627186847572117 -6.446438743051327 10
      vertex 1.8384776310850237 -6.741693263929093 10
    endloop
  endfacet
  facet normal 0 0 1
    outer loop
      vertex 8 -8 10
      vertex 1.8384776310850237 -2.4959110431049187 10
      vertex 2.0627186847572117 -2.7911655639826876 10
    endloop
  endfacet
  facet normal 0 0 1
    outer loop
      vertex -8 8 10
      vertex 1.8384776310850237 -2.4959110431049187 10
      vertex 8 -8 10
    endloop
  endfacet
  facet normal 0 0 1
    outer loop
      vertex 8 -8 10
      vertex 2.25166604983954 -6.1199128534100335 10
      vertex 2.0627186847572117 -6.446438743051327 10
    endloop
  endfacet
  facet normal 0 0 1
    outer loop
      vertex 8 -8 10
      vertex 2.4020867845293457 -5.767702543507058 10
      vertex 2.25166604983954 -6.1199128534100335 10
    endloop
  endfacet
  facet normal 0 0 1
    outer loop
      vertex 8 -8 10
      vertex 2.511407148351578 -5.395834229395986 10
      vertex 2.4020867845293457 -5.767702543507058 10
    endloop
  endfacet
  facet normal 0 0 1
    outer loop
      vertex 8 -8 10
      vertex 2.577756639571907 -5.010670681032632 10
      vertex 2.511407148351578 -5.395834229395986 10
    endloop
  endfacet
  facet normal 0 0 1
    outer loop
      vertex 8 -8 10
      vertex 2.6 -4.618802153517007 10
      vertex 2.577756639571907 -5.010670681032632 10
    endloop
  endfacet
  facet normal 0 0 1
    outer loop
      vertex 8 -8 10
      vertex 2.577756639571907 -4.2269336260013795 10
      vertex 2.6 -4.618802153517007 10
    endloop
  endfacet
  facet normal 0 0 1
    outer loop
      vertex 8 -8 10
      vertex 2.511407148351578 -3.8417700776380257 10
      vertex 2.577756639571907 -4.2269336260013795 10
    endloop
  endfacet
  facet normal 0 0 1
    outer loop
      vertex 8 -8 10
      vertex 2.4020867845293457 -3.469901763526955 10
      vertex 2.511407148351578 -3.8417700776380257 10
    endloop
  endfacet
  facet normal 0 0 1
    outer loop
      vertex 8 -8 10
      vertex 2.25166604983954 -3.1176914536239795 10
      vertex 2.4020867845293457 -3.469901763526955 10
    endloop
  endfacet
  facet normal 0 0 1
    outer loop
      vertex 8 -8 10
      vertex 2.0627186847572117 -2.7911655639826876 10
      vertex 2.25166604983954 -3.1176914536239795 10
    endloop
  endfacet
  facet normal 0 0 1
    outer loop
      vertex -8 8 10
      vertex 8 -8 10
      vertex 8 8 10
    endloop
  endfacet
  facet normal 0 1 0
    outer loop
      vertex -8 8 10
      vertex 8 8 10
      vertex 8 8 0
    endloop
  endfacet
  facet normal 1 0 0
    outer loop
      vertex 8 -8 10
      vertex 8 8 0
      vertex 8 8 10
    endloop
  endfacet
  facet normal 0.5555702330196017 0.7200738067288027 0.41573480615127284
    outer loop
      vertex -1.5 -3.6003912917914658 4
      vertex -1.5827797154226737 -1.7863667818605704 0.9686406576213942
      vertex -1.5827797154226737 -7.0006245293311 10
    endloop
  endfacet
  facet normal -3.6948875471193945e-16 -0.5 0.8660254037844387
    outer loop
      vertex -2.4020867845293457 -0.8616752924925386 1.5025115379253833
      vertex -2.25166604983954 -1.12583302491977 1.35
      vertex -2.25166604983954 1.12583302491977 2.65
    endloop
  endfacet
  facet normal -2.0995980258128083e-16 -0.4999999999999999 0.8660254037844388
    outer loop
      vertex -2.25166604983954 -1.12583302491977 1.35
      vertex -2.0627186847572117 -1.3707274421507398 1.2086101422886633
      vertex -2.0627186847572117 1.3707274421507398 2.7913898577113367
    endloop
  endfacet
  facet normal 7.525872193076579e-16 -0.5000000000000001 0.8660254037844387
    outer loop
      vertex -2.577756639571907 -0.2939013956367201 1.830315950113933
      vertex -2.511407148351578 -0.5827740569092347 1.663535241366723
      vertex -2.511407148351578 0.5827740569092347 2.336464758633277
    endloop
  endfacet
  facet normal 2.909495420893331e-16 -0.4999999999999999 0.8660254037844387
    outer loop
      vertex -2.511407148351578 -0.5827740569092347 1.663535241366723
      vertex -2.4020867845293457 -0.8616752924925386 1.5025115379253833
      vertex -2.4020867845293457 0.8616752924925386 2.4974884620746165
    endloop
  endfacet
  facet normal 0.442288690219002 0.7767145781291024 0.448436370766344
    outer loop
      vertex -1.3 -1.9499999999999997 0.8741669750802299
      vertex -0.9949769241492334 -2.196340634140095 1
      vertex -0.9949769241492334 -2.0802681774972904 0.7989566077353272
    endloop
  endfacet
  facet normal 0.44228869021900225 0.7767145781291025 0.4484363707663441
    outer loop
      vertex -1.3 -2.022649730810374 1
      vertex -0.9949769241492334 -2.196340634140095 1
      vertex -1.3 -1.9499999999999997 0.8741669750802299
    endloop
  endfacet
  facet normal 0.321439465303162 0.8200655477516495 0.4734650647475529
    outer loop
      vertex -0.9949769241492334 -2.196340634140095 1
      vertex -0.6729295172665539 -2.322572917101442 1
      vertex -0.9949769241492334 -2.0802681774972904 0.7989566077353272
    endloop
  endfacet
  facet normal 0.3214394653031623 0.8200655477516496 0.47346506474755257
    outer loop
      vertex -0.9949769241492334 -2.0802681774972904 0.7989566077353272
      vertex -0.6729295172665539 -2.322572917101442 1
      vertex -0.6729295172665539 -2.174942389718301 0.7442964258242111
    endloop
  endfacet
  facet normal 6.343555822175093e-16 -0.49999999999999883 0.8660254037844394
    outer loop
      vertex -1.5 -1.7320508075688772 1
      vertex -0.6729295172665539 -2.174942389718301 0.7442964258242111
      vertex -0.3393680997721341 -2.232402734643278 0.7111216802140465
    endloop
  endfacet
  facet normal 0.19509032201612625 0.849384968487042 0.4903926402016152
    outer loop
      vertex -0.6729295172665539 -2.322572917101442 1
      vertex -0.3393680997721341 -2.399186710334745 1
      vertex -0.6729295172665539 -2.174942389718301 0.7442964258242111
    endloop
  endfacet
  facet normal 2.6092823076398896e-16 -0.49999999999999944 0.866025403784439
    outer loop
      vertex -1.5 -1.7320508075688772 1
      vertex -0.3393680997721341 -2.232402734643278 0.7111216802140465
      vertex 0 -2.25166604983954 0.7
    endloop
  endfacet
  facet normal 0.19509032201612642 0.849384968487042 0.4903926402016151
    outer loop
      vertex -0.6729295172665539 -2.174942389718301 0.7442964258242111
      vertex -0.3393680997721341 -2.399186710334745 1
      vertex -0.3393680997721341 -2.232402734643278 0.7111216802140465
    endloop
  endfacet
  facet normal -2.5682054152126496e-16 -0.5000000000000006 0.8660254037844383
    outer loop
      vertex -1.5 -1.7320508075688772 1
      vertex 0 -2.25166604983954 0.7
      vertex 0.3393680997721341 -2.232402734643278 0.7111216802140465
    endloop
  endfacet
  facet normal 0.06540312923014355 0.864171176917617 0.49892946161930135
    outer loop
      vertex -0.3393680997721341 -2.399186710334745 1
      vertex 0 -2.424871130596428 1
      vertex -0.3393680997721341 -2.232402734643278 0.7111216802140465
    endloop
  endfacet
  facet normal 0.06540312923014331 0.8641711769176168 0.4989294616193016
    outer loop
      vertex -0.3393680997721341 -2.232402734643278 0.7111216802140465
      vertex 0 -2.424871130596428 1
      vertex 0 -2.25166604983954 0.7
    endloop
  endfacet
  facet normal -2.42053794403242e-16 -0.5000000000000008 0.8660254037844382
    outer loop
      vertex -1.5 -1.7320508075688772 1
      vertex 0.3393680997721341 -2.232402734643278 0.7111216802140465
      vertex 0.6729295172665539 -2.174942389718301 0.7442964258242111
    endloop
  endfacet
  facet normal 0.5555702330196024 0.7200738067288023 0.41573480615127256
    outer loop
      vertex -1.5 -3.6003912917914658 4
      vertex -1.5 -1.8683404842225886 1
      vertex -1.5827797154226737 -1.7863667818605704 0.9686406576213942
    endloop
  endfacet
  facet normal 3.1621645051530473e-19 -0.49999999999999983 0.8660254037844388
    outer loop
      vertex -1.5 -1.7320508075688772 1
      vertex -1.3 -1.9499999999999997 0.8741669750802299
      vertex -0.9949769241492334 -2.0802681774972904 0.7989566077353272
    endloop
  endfacet
  facet normal -1.822552565344986e-16 -0.4999999999999999 0.8660254037844386
    outer loop
      vertex -1.5 -1.7320508075688772 1
      vertex -0.9949769241492334 -2.0802681774972904 0.7989566077353272
      vertex -0.6729295172665539 -2.174942389718301 0.7442964258242111
    endloop
  endfacet
  facet normal 0.5555702330196012 0.7200738067288023 0.41573480615127417
    outer loop
      vertex -1.5827797154226737 -1.7863667818605704 0.9686406576213942
      vertex -1.5 -1.8683404842225886 1
      vertex -1.3 -1.9499999999999997 0.8741669750802299
    endloop
  endfacet
  facet normal 2.2592886312302525e-16 -0.4999999999999998 0.8660254037844388
    outer loop
      vertex -1.5827797154226737 -1.7863667818605704 0.9686406576213942
      vertex -1.3 -1.9499999999999997 0.8741669750802299
      vertex -1.5 -1.7320508075688772 1
    endloop
  endfacet
  facet normal 0.5555702330196008 0.7200738067288032 0.4157348061512732
    outer loop
      vertex -1.5 -1.8683404842225886 1
      vertex -1.3 -2.022649730810374 1
      vertex -1.3 -1.9499999999999997 0.8741669750802299
    endloop
  endfacet
  facet normal 4.798442425577897e-16 -0.5 0.8660254037844386
    outer loop
      vertex -1.5827797154226737 -1.7863667818605704 0.9686406576213942
      vertex -1.5 -1.7320508075688772 1
      vertex -1.5 0 2
    endloop
  endfacet
  facet normal 4.56646263295925e-16 -0.5 0.8660254037844387
    outer loop
      vertex -1.8384776310850237 -1.592168332809066 1.0807611844574883
      vertex -1.5827797154226737 -1.7863667818605704 0.9686406576213942
      vertex -1.5827797154226737 1.7863667818605704 3.0313593423786056
    endloop
  endfacet
  facet normal -9.408609076836565e-17 -0.49999999999999994 0.8660254037844387
    outer loop
      vertex -2.0627186847572117 -1.3707274421507398 1.2086101422886633
      vertex -1.8384776310850237 -1.592168332809066 1.0807611844574883
      vertex -1.8384776310850237 1.592168332809066 2.9192388155425117
    endloop
  endfacet
  facet normal 0.8968727415326878 0.383033241536202 0.22114434510950115
    outer loop
      vertex -2.4020867845293457 -0.8616752924925386 1.5025115379253833
      vertex -2.4020867845293457 -5.767702543507058 10
      vertex -2.25166604983954 -1.12583302491977 1.35
    endloop
  endfacet
  facet normal 0.831469612302546 0.4811379353814147 0.2777851165098006
    outer loop
      vertex -2.25166604983954 -1.12583302491977 1.35
      vertex -2.25166604983954 -6.119912853410034 10
      vertex -2.0627186847572117 -1.3707274421507398 1.2086101422886633
    endloop
  endfacet
  facet normal 0.9469301294951055 0.278374742731425 0.16071973265158104
    outer loop
      vertex -2.511407148351578 -0.5827740569092347 1.663535241366723
      vertex -2.511407148351578 -5.395834229395986 10
      vertex -2.4020867845293457 -0.8616752924925386 1.5025115379253833
    endloop
  endfacet
  facet normal 0.9807852804032308 0.16895317489845255 0.0975451610080635
    outer loop
      vertex -2.577756639571907 -0.2939013956367201 1.830315950113933
      vertex -2.577756639571907 -5.010670681032632 10
      vertex -2.511407148351578 -0.5827740569092347 1.663535241366723
    endloop
  endfacet
  facet normal 0.9978589232386035 0.05664077140030107 0.03270156461507189
    outer loop
      vertex -2.577756639571907 -0.2939013956367201 1.830315950113933
      vertex -2.6 0 2
      vertex -2.6 -4.618802153517008 10
    endloop
  endfacet
  facet normal 0.9978589232386035 -0.05664077140030106 -0.03270156461507189
    outer loop
      vertex -2.6 0 2
      vertex -2.577756639571907 0.2939013956367201 2.169684049886067
      vertex -2.577756639571907 -4.226933626001381 10
    endloop
  endfacet
  facet normal 0.9807852804032307 -0.16895317489845257 -0.09754516100806349
    outer loop
      vertex -2.577756639571907 0.2939013956367201 2.169684049886067
      vertex -2.511407148351578 0.5827740569092347 2.336464758633277
      vertex -2.511407148351578 -3.841770077638026 10
    endloop
  endfacet
  facet normal 0.9469301294951054 -0.27837474273142504 -0.1607197326515811
    outer loop
      vertex -2.511407148351578 0.5827740569092347 2.336464758633277
      vertex -2.4020867845293457 0.8616752924925386 2.4974884620746165
      vertex -2.4020867845293457 -3.4699017635269556 10
    endloop
  endfacet
  facet normal 0.659345815100069 0.651112372853196 0.37591990373948875
    outer loop
      vertex -1.8384776310850237 -1.592168332809066 1.0807611844574883
      vertex -1.8384776310850237 -6.741693263929093 10
      vertex -1.5827797154226737 -1.7863667818605704 0.9686406576213942
    endloop
  endfacet
  facet normal 0.7518398074789775 0.5710102257556169 0.3296729075500345
    outer loop
      vertex -2.0627186847572117 -1.3707274421507398 1.2086101422886633
      vertex -2.0627186847572117 -6.446438743051327 10
      vertex -1.8384776310850237 -1.592168332809066 1.0807611844574883
    endloop
  endfacet
  facet normal 0.8314696123025456 0.481137935381415 0.2777851165098008
    outer loop
      vertex -2.0627186847572117 -1.3707274421507398 1.2086101422886633
      vertex -2.25166604983954 -6.119912853410034 10
      vertex -2.0627186847572117 -6.446438743051327 10
    endloop
  endfacet
  facet normal 0.8968727415326885 0.3830332415362008 0.22114434510950048
    outer loop
      vertex -2.25166604983954 -1.12583302491977 1.35
      vertex -2.4020867845293457 -5.767702543507058 10
      vertex -2.25166604983954 -6.119912853410034 10
    endloop
  endfacet
  facet normal 0.9469301294951056 0.27837474273142465 0.16071973265158082
    outer loop
      vertex -2.4020867845293457 -0.8616752924925386 1.5025115379253833
      vertex -2.511407148351578 -5.395834229395986 10
      vertex -2.4020867845293457 -5.767702543507058 10
    endloop
  endfacet
  facet normal 0.555570233019601 0.7200738067288033 0.41573480615127306
    outer loop
      vertex -1.5 -3.6003912917914658 4
      vertex -1.5827797154226737 -7.0006245293311 10
      vertex -1.3 -3.754700538379251 4
    endloop
  endfacet
  facet normal 0.4422886902190031 0.776714578129102 0.4484363707663438
    outer loop
      vertex -0.9949769241492334 -3.9283914417089725 4
      vertex -1.3 -3.754700538379251 4
      vertex -1.3 -7.218802153517006 10
    endloop
  endfacet
  facet normal 0.321439465303162 0.8200655477516495 0.47346506474755296
    outer loop
      vertex -0.9949769241492334 -3.9283914417089725 4
      vertex -0.9949769241492334 -7.392493056846728 10
      vertex -0.6729295172665539 -4.05462372467032 4
    endloop
  endfacet
  facet normal 0.19509032201612622 0.8493849684870417 0.49039264020161555
    outer loop
      vertex -0.6729295172665539 -4.05462372467032 4
      vertex -0.6729295172665539 -7.518725339808075 10
      vertex -0.3393680997721341 -4.131237517903623 4
    endloop
  endfacet
  facet normal 0.0654031292301424 0.8641711769176167 0.4989294616193018
    outer loop
      vertex -0.3393680997721341 -4.131237517903623 4
      vertex -0.3393680997721341 -7.595339133041378 10
      vertex 0 -4.156921938165305 4
    endloop
  endfacet
  facet normal 0.6593458151000697 0.6511123728531953 0.37591990373948836
    outer loop
      vertex -1.5827797154226737 -1.7863667818605704 0.9686406576213942
      vertex -1.8384776310850237 -6.741693263929093 10
      vertex -1.5827797154226737 -7.0006245293311 10
    endloop
  endfacet
  facet normal 0.7518398074789756 0.5710102257556187 0.32967290755003537
    outer loop
      vertex -1.8384776310850237 -1.592168332809066 1.0807611844574883
      vertex -2.0627186847572117 -6.446438743051327 10
      vertex -1.8384776310850237 -6.741693263929093 10
    endloop
  endfacet
  facet normal 0.44228869021900424 0.7767145781291015 0.44843637076634346
    outer loop
      vertex -0.9949769241492334 -3.9283914417089725 4
      vertex -1.3 -7.218802153517006 10
      vertex -0.9949769241492334 -7.392493056846728 10
    endloop
  endfacet
  facet normal 0.321439465303161 0.8200655477516499 0.473465064747553
    outer loop
      vertex -0.6729295172665539 -4.05462372467032 4
      vertex -0.9949769241492334 -7.392493056846728 10
      vertex -0.6729295172665539 -7.518725339808075 10
    endloop
  endfacet
  facet normal 0.19509032201612622 0.8493849684870417 0.49039264020161555
    outer loop
      vertex -0.3393680997721341 -4.131237517903623 4
      vertex -0.6729295172665539 -7.518725339808075 10
      vertex -0.3393680997721341 -7.595339133041378 10
    endloop
  endfacet
  facet normal 0.0654031292301424 0.8641711769176167 0.4989294616193018
    outer loop
      vertex 0 -4.156921938165305 4
      vertex -0.3393680997721341 -7.595339133041378 10
      vertex 0 -7.62102355330306 10
    endloop
  endfacet
  facet normal 0.5555702330196022 0.7200738067288023 0.4157348061512727
    outer loop
      vertex -1.3 -3.754700538379251 4
      vertex -1.5827797154226737 -7.0006245293311 10
      vertex -1.3 -7.218802153517006 10
    endloop
  endfacet
  facet normal 0.9807852804032308 0.1689531748984525 0.09754516100806349
    outer loop
      vertex -2.511407148351578 -0.5827740569092347 1.663535241366723
      vertex -2.577756639571907 -5.010670681032632 10
      vertex -2.511407148351578 -5.395834229395986 10
    endloop
  endfacet
  facet normal 0.9978589232386035 0.056640771400301354 0.03270156461507204
    outer loop
      vertex -2.577756639571907 -0.2939013956367201 1.830315950113933
      vertex -2.6 -4.618802153517008 10
      vertex -2.577756639571907 -5.010670681032632 10
    endloop
  endfacet
  facet normal 0.9978589232386035 -0.056640771400301125 -0.03270156461507192
    outer loop
      vertex -2.6 0 2
      vertex -2.577756639571907 -4.226933626001381 10
      vertex -2.6 -4.618802153517008 10
    endloop
  endfacet
  facet normal 0.9807852804032309 -0.16895317489845146 -0.09754516100806292
    outer loop
      vertex -2.577756639571907 0.2939013956367201 2.169684049886067
      vertex -2.511407148351578 -3.841770077638026 10
      vertex -2.577756639571907 -4.226933626001381 10
    endloop
  endfacet
  facet normal 0.9469301294951051 -0.27837474273142593 -0.16071973265158154
    outer loop
      vertex -2.511407148351578 0.5827740569092347 2.336464758633277
      vertex -2.4020867845293457 -3.4699017635269556 10
      vertex -2.511407148351578 -3.841770077638026 10
    endloop
  endfacet
  facet normal 0.8968727415326878 -0.3830332415362019 -0.22114434510950104
    outer loop
      vertex -2.4020867845293457 0.8616752924925386 2.4974884620746165
      vertex -2.25166604983954 1.12583302491977 2.65
      vertex -2.25166604983954 -3.117691453623979 10
    endloop
  endfacet
  facet normal 0.831469612302546 -0.4811379353814147 -0.27778511650980064
    outer loop
      vertex -2.25166604983954 1.12583302491977 2.65
      vertex -2.0627186847572117 1.3707274421507398 2.7913898577113367
      vertex -2.0627186847572117 -2.7911655639826876 10
    endloop
  endfacet
  facet normal 0.8968727415326886 -0.3830332415362007 -0.22114434510950046
    outer loop
      vertex -2.4020867845293457 0.8616752924925386 2.4974884620746165
      vertex -2.25166604983954 -3.117691453623979 10
      vertex -2.4020867845293457 -3.4699017635269556 10
    endloop
  endfacet
  facet normal 0.8314696123025447 -0.4811379353814163 -0.2777851165098015
    outer loop
      vertex -2.25166604983954 1.12583302491977 2.65
      vertex -2.0627186847572117 -2.7911655639826876 10
      vertex -2.25166604983954 -3.117691453623979 10
    endloop
  endfacet
  facet normal 0.7518398074789785 -0.5710102257556157 -0.3296729075500338
    outer loop
      vertex -2.0627186847572117 1.3707274421507398 2.7913898577113367
      vertex -1.8384776310850237 -2.4959110431049183 10
      vertex -2.0627186847572117 -2.7911655639826876 10
    endloop
  endfacet
  facet normal 0.6593458151000674 -0.6511123728531971 -0.3759199037394893
    outer loop
      vertex -1.8384776310850237 1.592168332809066 2.9192388155425117
      vertex -1.5827797154226737 -2.2369797777029135 10
      vertex -1.8384776310850237 -2.4959110431049183 10
    endloop
  endfacet
  facet normal 0.555570233019602 -0.7200738067288025 -0.41573480615127284
    outer loop
      vertex -1.5827797154226737 1.7863667818605704 3.0313593423786056
      vertex -1.3 -2.0188021535170066 10
      vertex -1.5827797154226737 -2.2369797777029135 10
    endloop
  endfacet
  facet normal 0.4422886902189999 -0.7767145781291035 -0.44843637076634457
    outer loop
      vertex -1.3 1.9499999999999997 3.1258330249197703
      vertex -0.9949769241492334 -1.8451112501872866 10
      vertex -1.3 -2.0188021535170066 10
    endloop
  endfacet
  facet normal 0.32143946530316514 -0.8200655477516485 -0.4734650647475523
    outer loop
      vertex -0.9949769241492334 2.0802681774972904 3.2010433922646726
      vertex -0.6729295172665539 -1.7188789672259381 10
      vertex -0.9949769241492334 -1.8451112501872866 10
    endloop
  endfacet
  facet normal 0.19509032201612478 -0.8493849684870421 -0.49039264020161555
    outer loop
      vertex -0.6729295172665539 2.174942389718301 3.255703574175789
      vertex -0.3393680997721341 -1.6422651739926353 10
      vertex -0.6729295172665539 -1.7188789672259381 10
    endloop
  endfacet
  facet normal 0.0654031292301439 -0.8641711769176167 -0.4989294616193018
    outer loop
      vertex -0.3393680997721341 2.232402734643278 3.2888783197859537
      vertex 0 -1.6165807537309527 10
      vertex -0.3393680997721341 -1.6422651739926353 10
    endloop
  endfacet
  facet normal -3.6924309973447084e-16 -0.49999999999999994 0.8660254037844387
    outer loop
      vertex -2.577756639571907 -0.2939013956367201 1.830315950113933
      vertex -2.577756639571907 0.2939013956367201 2.169684049886067
      vertex -2.6 0 2
    endloop
  endfacet
  facet normal -6.308435916784821e-16 -0.49999999999999994 0.8660254037844387
    outer loop
      vertex -2.577756639571907 -0.2939013956367201 1.830315950113933
      vertex -2.511407148351578 0.5827740569092347 2.336464758633277
      vertex -2.577756639571907 0.2939013956367201 2.169684049886067
    endloop
  endfacet
  facet normal 2.1582368332839368e-15 -0.5000000000000001 0.8660254037844387
    outer loop
      vertex -2.511407148351578 -0.5827740569092347 1.663535241366723
      vertex -2.4020867845293457 0.8616752924925386 2.4974884620746165
      vertex -2.511407148351578 0.5827740569092347 2.336464758633277
    endloop
  endfacet
  facet normal -1.3414071681952233e-15 -0.4999999999999999 0.8660254037844386
    outer loop
      vertex -2.4020867845293457 -0.8616752924925386 1.5025115379253833
      vertex -2.25166604983954 1.12583302491977 2.65
      vertex -2.4020867845293457 0.8616752924925386 2.4974884620746165
    endloop
  endfacet
  facet normal 1.2436996044618568e-18 -0.5000000000000001 0.8660254037844387
    outer loop
      vertex -2.25166604983954 -1.12583302491977 1.35
      vertex -2.0627186847572117 1.3707274421507398 2.7913898577113367
      vertex -2.25166604983954 1.12583302491977 2.65
    endloop
  endfacet
  facet normal -1.9589765094810604e-15 -0.49999999999999994 0.8660254037844387
    outer loop
      vertex -1.5827797154226737 -1.7863667818605704 0.9686406576213942
      vertex -1.5 0 2
      vertex -1.5827797154226737 1.7863667818605704 3.0313593423786056
    endloop
  endfacet
  facet normal 3.713791199798801e-16 -0.5 0.8660254037844387
    outer loop
      vertex -2.0627186847572117 -1.3707274421507398 1.2086101422886633
      vertex -1.8384776310850237 1.592168332809066 2.9192388155425117
      vertex -2.0627186847572117 1.3707274421507398 2.7913898577113367
    endloop
  endfacet
  facet normal 1.6137258929726365e-16 -0.49999999999999994 0.8660254037844386
    outer loop
      vertex -1.8384776310850237 -1.592168332809066 1.0807611844574883
      vertex -1.5827797154226737 1.7863667818605704 3.0313593423786056
      vertex -1.8384776310850237 1.592168332809066 2.9192388155425117
    endloop
  endfacet
  facet normal 6.409875621278547e-17 -0.49999999999999994 0.8660254037844387
    outer loop
      vertex -1.5 0 2
      vertex 1.5 0 1.9999999999999998
      vertex -1.5827797154226737 1.7863667818605704 3.0313593423786056
    endloop
  endfacet
  facet normal -6.974334019113386e-16 -0.500000000000001 0.8660254037844382
    outer loop
      vertex -1.5827797154226737 1.7863667818605704 3.0313593423786056
      vertex 1.5 0 1.9999999999999998
      vertex -1.3 1.9499999999999997 3.1258330249197703
    endloop
  endfacet
  facet normal 8.698013860012227e-16 -0.4999999999999992 0.866025403784439
    outer loop
      vertex -1.3 1.9499999999999997 3.1258330249197703
      vertex 1.5 0 1.9999999999999998
      vertex -0.9949769241492334 2.0802681774972904 3.2010433922646726
    endloop
  endfacet
  facet normal -7.803638640171193e-16 -0.5000000000000008 0.8660254037844384
    outer loop
      vertex -0.9949769241492334 2.0802681774972904 3.2010433922646726
      vertex 1.5 0 1.9999999999999998
      vertex -0.6729295172665539 2.174942389718301 3.255703574175789
    endloop
  endfacet
  facet normal 0.7518398074789776 -0.571010225755617 -0.3296729075500344
    outer loop
      vertex -2.0627186847572117 1.3707274421507398 2.7913898577113367
      vertex -1.8384776310850237 1.592168332809066 2.9192388155425117
      vertex -1.8384776310850237 -2.4959110431049183 10
    endloop
  endfacet
  facet normal 0.6593458151000687 -0.6511123728531961 -0.3759199037394888
    outer loop
      vertex -1.8384776310850237 1.592168332809066 2.9192388155425117
      vertex -1.5827797154226737 1.7863667818605704 3.0313593423786056
      vertex -1.5827797154226737 -2.2369797777029135 10
    endloop
  endfacet
  facet normal 0.5555702330196016 -0.7200738067288027 -0.41573480615127284
    outer loop
      vertex -1.5827797154226737 1.7863667818605704 3.0313593423786056
      vertex -1.3 1.9499999999999997 3.1258330249197703
      vertex -1.3 -2.0188021535170066 10
    endloop
  endfacet
  facet normal 0.44228869021900163 -0.7767145781291026 -0.44843637076634413
    outer loop
      vertex -1.3 1.9499999999999997 3.1258330249197703
      vertex -0.9949769241492334 2.0802681774972904 3.2010433922646726
      vertex -0.9949769241492334 -1.8451112501872866 10
    endloop
  endfacet
  facet normal 0.32143946530316286 -0.8200655477516493 -0.47346506474755257
    outer loop
      vertex -0.9949769241492334 2.0802681774972904 3.2010433922646726
      vertex -0.6729295172665539 2.174942389718301 3.255703574175789
      vertex -0.6729295172665539 -1.7188789672259381 10
    endloop
  endfacet
  facet normal 0.19509032201612642 -0.8493849684870419 -0.49039264020161544
    outer loop
      vertex -0.6729295172665539 2.174942389718301 3.255703574175789
      vertex -0.3393680997721341 2.232402734643278 3.2888783197859537
      vertex -0.3393680997721341 -1.6422651739926353 10
    endloop
  endfacet
  facet normal 0.06540312923014266 -0.8641711769176167 -0.4989294616193018
    outer loop
      vertex -0.3393680997721341 2.232402734643278 3.2888783197859537
      vertex 0 2.25166604983954 3.3
      vertex 0 -1.6165807537309527 10
    endloop
  endfacet
  facet normal -0.5555702330196016 0.7200738067288027 0.41573480615127284
    outer loop
      vertex 1.5 -3.6003912917914658 4
      vertex 1.5827797154226737 -7.0006245293311 10
      vertex 1.5827797154226737 -1.7863667818605704 0.9686406576213942
    endloop
  endfacet
  facet normal -0.06540312923014331 0.8641711769176168 0.4989294616193016
    outer loop
      vertex 0 -2.424871130596428 1
      vertex 0.3393680997721341 -2.232402734643278 0.7111216802140465
      vertex 0 -2.25166604983954 0.7
    endloop
  endfacet
  facet normal -0.06540312923014355 0.864171176917617 0.49892946161930135
    outer loop
      vertex 0 -2.424871130596428 1
      vertex 0.3393680997721341 -2.399186710334745 1
      vertex 0.3393680997721341 -2.232402734643278 0.7111216802140465
    endloop
  endfacet
  facet normal -0.1950903220161264 0.849384968487042 0.49039264020161505
    outer loop
      vertex 0.3393680997721341 -2.399186710334745 1
      vertex 0.6729295172665539 -2.174942389718301 0.7442964258242111
      vertex 0.3393680997721341 -2.232402734643278 0.7111216802140465
    endloop
  endfacet
  facet normal -0.19509032201612625 0.849384968487042 0.4903926402016152
    outer loop
      vertex 0.3393680997721341 -2.399186710334745 1
      vertex 0.6729295172665539 -2.322572917101442 1
      vertex 0.6729295172665539 -2.174942389718301 0.7442964258242111
    endloop
  endfacet
  facet normal -0.32143946530316203 0.8200655477516496 0.47346506474755257
    outer loop
      vertex 0.6729295172665539 -2.322572917101442 1
      vertex 0.9949769241492334 -2.196340634140095 1
      vertex 0.6729295172665539 -2.174942389718301 0.7442964258242111
    endloop
  endfacet
  facet normal -0.32143946530316225 0.8200655477516493 0.4734650647475528
    outer loop
      vertex 0.6729295172665539 -2.174942389718301 0.7442964258242111
      vertex 0.9949769241492334 -2.196340634140095 1
      vertex 0.9949769241492334 -2.0802681774972904 0.7989566077353272
    endloop
  endfacet
  facet normal -0.44228869021900213 0.7767145781291024 0.448436370766344
    outer loop
      vertex 0.9949769241492334 -2.196340634140095 1
      vertex 1.3 -1.9499999999999997 0.8741669750802299
      vertex 0.9949769241492334 -2.0802681774972904 0.7989566077353272
    endloop
  endfacet
  facet normal -0.44228869021900213 0.7767145781291024 0.4484363707663441
    outer loop
      vertex 0.9949769241492334 -2.196340634140095 1
      vertex 1.3 -2.022649730810374 1
      vertex 1.3 -1.9499999999999997 0.8741669750802299
    endloop
  endfacet
  facet normal -0.5555702330196023 0.7200738067288023 0.41573480615127256
    outer loop
      vertex 1.5 -3.6003912917914658 4
      vertex 1.5827797154226737 -1.7863667818605704 0.9686406576213942
      vertex 1.5 -1.8683404842225886 1
    endloop
  endfacet
  facet normal 3.188857472789699e-17 -0.4999999999999999 0.8660254037844388
    outer loop
      vertex -1.5 -1.7320508075688772 1
      vertex 0.6729295172665539 -2.174942389718301 0.7442964258242111
      vertex 0.9949769241492334 -2.0802681774972904 0.7989566077353272
    endloop
  endfacet
  facet normal -3.3358949684231735e-18 -0.49999999999999994 0.8660254037844387
    outer loop
      vertex -1.5 -1.7320508075688772 1
      vertex 0.9949769241492334 -2.0802681774972904 0.7989566077353272
      vertex 1.3 -1.9499999999999997 0.8741669750802299
    endloop
  endfacet
  facet normal 0 -0.49999999999999983 0.8660254037844386
    outer loop
      vertex -1.5 -1.7320508075688772 1
      vertex 1.3 -1.9499999999999997 0.8741669750802299
      vertex 1.5 -1.7320508075688772 1
    endloop
  endfacet
  facet normal -0.5555702330196008 0.7200738067288032 0.4157348061512731
    outer loop
      vertex 1.3 -2.022649730810374 1
      vertex 1.5 -1.8683404842225886 1
      vertex 1.3 -1.9499999999999997 0.8741669750802299
    endloop
  endfacet
  facet normal -0.5555702330196013 0.7200738067288022 0.41573480615127417
    outer loop
      vertex 1.3 -1.9499999999999997 0.8741669750802299
      vertex 1.5 -1.8683404842225886 1
      vertex 1.5827797154226737 -1.7863667818605704 0.9686406576213942
    endloop
  endfacet
  facet normal -2.152309877686952e-16 -0.49999999999999967 0.8660254037844388
    outer loop
      vertex 1.3 -1.9499999999999997 0.8741669750802299
      vertex 1.5827797154226737 -1.7863667818605704 0.9686406576213942
      vertex 1.5 -1.7320508075688772 1
    endloop
  endfacet
  facet normal -4.2081680324749643e-16 -0.49999999999999994 0.8660254037844386
    outer loop
      vertex 1.5 -1.7320508075688772 1
      vertex 1.5827797154226737 -1.7863667818605704 0.9686406576213942
      vertex 1.5827797154226737 1.7863667818605704 3.0313593423786056
    endloop
  endfacet
  facet normal -4.664800454277697e-16 -0.49999999999999994 0.8660254037844387
    outer loop
      vertex 1.5827797154226737 -1.7863667818605704 0.9686406576213942
      vertex 1.8384776310850237 -1.592168332809066 1.0807611844574883
      vertex 1.8384776310850237 1.592168332809066 2.9192388155425117
    endloop
  endfacet
  facet normal 1.0928568997214071e-16 -0.5 0.8660254037844387
    outer loop
      vertex 1.8384776310850237 -1.592168332809066 1.0807611844574883
      vertex 2.0627186847572117 -1.3707274421507398 1.2086101422886633
      vertex 2.0627186847572117 1.3707274421507398 2.7913898577113367
    endloop
  endfacet
  facet normal 2.5563085890753884e-16 -0.5 0.8660254037844387
    outer loop
      vertex 2.0627186847572117 -1.3707274421507398 1.2086101422886633
      vertex 2.25166604983954 -1.12583302491977 1.35
      vertex 2.25166604983954 1.12583302491977 2.65
    endloop
  endfacet
  facet normal 2.8680690468748125e-16 -0.4999999999999999 0.8660254037844386
    outer loop
      vertex 2.25166604983954 -1.12583302491977 1.35
      vertex 2.4020867845293457 -0.8616752924925386 1.5025115379253833
      vertex 2.4020867845293457 0.8616752924925386 2.4974884620746165
    endloop
  endfacet
  facet normal -9.280036380974867e-18 -0.5 0.8660254037844386
    outer loop
      vertex 2.4020867845293457 -0.8616752924925386 1.5025115379253833
      vertex 2.511407148351578 -0.5827740569092347 1.663535241366723
      vertex 2.511407148351578 0.5827740569092347 2.336464758633277
    endloop
  endfacet
  facet normal -1.4922974626363645e-15 -0.49999999999999994 0.8660254037844387
    outer loop
      vertex 2.511407148351578 -0.5827740569092347 1.663535241366723
      vertex 2.577756639571907 -0.2939013956367201 1.830315950113933
      vertex 2.577756639571907 0.2939013956367201 2.169684049886067
    endloop
  endfacet
  facet normal -0.659345815100069 0.651112372853196 0.37591990373948875
    outer loop
      vertex 1.5827797154226737 -1.7863667818605704 0.9686406576213942
      vertex 1.8384776310850237 -6.741693263929093 10
      vertex 1.8384776310850237 -1.592168332809066 1.0807611844574883
    endloop
  endfacet
  facet normal -0.7518398074789775 0.5710102257556169 0.3296729075500345
    outer loop
      vertex 1.8384776310850237 -1.592168332809066 1.0807611844574883
      vertex 2.0627186847572117 -6.446438743051327 10
      vertex 2.0627186847572117 -1.3707274421507398 1.2086101422886633
    endloop
  endfacet
  facet normal -0.831469612302546 0.4811379353814147 0.2777851165098006
    outer loop
      vertex 2.0627186847572117 -1.3707274421507398 1.2086101422886633
      vertex 2.25166604983954 -6.1199128534100335 10
      vertex 2.25166604983954 -1.12583302491977 1.35
    endloop
  endfacet
  facet normal -0.8968727415326878 0.38303324153620194 0.22114434510950112
    outer loop
      vertex 2.25166604983954 -1.12583302491977 1.35
      vertex 2.4020867845293457 -5.767702543507058 10
      vertex 2.4020867845293457 -0.8616752924925386 1.5025115379253833
    endloop
  endfacet
  facet normal -0.9469301294951055 0.278374742731425 0.16071973265158102
    outer loop
      vertex 2.4020867845293457 -0.8616752924925386 1.5025115379253833
      vertex 2.511407148351578 -5.395834229395986 10
      vertex 2.511407148351578 -0.5827740569092347 1.663535241366723
    endloop
  endfacet
  facet normal -0.9807852804032308 0.16895317489845255 0.0975451610080635
    outer loop
      vertex 2.511407148351578 -0.5827740569092347 1.663535241366723
      vertex 2.577756639571907 -5.010670681032632 10
      vertex 2.577756639571907 -0.2939013956367201 1.830315950113933
    endloop
  endfacet
  facet normal -0.9978589232386035 0.05664077140030107 0.032701564615071885
    outer loop
      vertex 2.577756639571907 -0.2939013956367201 1.830315950113933
      vertex 2.6 -4.618802153517007 10
      vertex 2.6 0 2
    endloop
  endfacet
  facet normal -0.9978589232386035 -0.05664077140030107 -0.03270156461507188
    outer loop
      vertex 2.6 0 2
      vertex 2.577756639571907 -4.2269336260013795 10
      vertex 2.577756639571907 0.2939013956367201 2.169684049886067
    endloop
  endfacet
  facet normal -0.9469301294951054 -0.27837474273142504 -0.1607197326515811
    outer loop
      vertex 2.511407148351578 0.5827740569092347 2.336464758633277
      vertex 2.4020867845293457 -3.469901763526955 10
      vertex 2.4020867845293457 0.8616752924925386 2.4974884620746165
    endloop
  endfacet
  facet normal -0.9807852804032307 -0.16895317489845255 -0.09754516100806349
    outer loop
      vertex 2.577756639571907 0.2939013956367201 2.169684049886067
      vertex 2.511407148351578 -3.8417700776380257 10
      vertex 2.511407148351578 0.5827740569092347 2.336464758633277
    endloop
  endfacet
  facet normal -0.0654031292301424 0.8641711769176167 0.4989294616193018
    outer loop
      vertex 0 -4.156921938165305 4
      vertex 0 -7.62102355330306 10
      vertex 0.3393680997721341 -4.131237517903623 4
    endloop
  endfacet
  facet normal -0.19509032201612622 0.8493849684870417 0.49039264020161555
    outer loop
      vertex 0.3393680997721341 -4.131237517903623 4
      vertex 0.3393680997721341 -7.595339133041378 10
      vertex 0.6729295172665539 -4.05462372467032 4
    endloop
  endfacet
  facet normal -0.32143946530316303 0.8200655477516492 0.4734650647475527
    outer loop
      vertex 0.6729295172665539 -4.05462372467032 4
      vertex 0.6729295172665539 -7.518725339808075 10
      vertex 0.9949769241492334 -3.928391441708972 4
    endloop
  endfacet
  facet normal -0.4422886902190022 0.7767145781291025 0.4484363707663441
    outer loop
      vertex 0.9949769241492334 -3.928391441708972 4
      vertex 0.9949769241492334 -7.392493056846727 10
      vertex 1.3 -3.754700538379251 4
    endloop
  endfacet
  facet normal -0.555570233019601 0.7200738067288032 0.41573480615127306
    outer loop
      vertex 1.3 -3.754700538379251 4
      vertex 1.5827797154226737 -7.0006245293311 10
      vertex 1.5 -3.6003912917914658 4
    endloop
  endfacet
  facet normal -0.6593458151000701 0.6511123728531951 0.37591990373948825
    outer loop
      vertex 1.5827797154226737 -1.7863667818605704 0.9686406576213942
      vertex 1.5827797154226737 -7.0006245293311 10
      vertex 1.8384776310850237 -6.741693263929093 10
    endloop
  endfacet
  facet normal -0.751839807478976 0.5710102257556184 0.3296729075500352
    outer loop
      vertex 1.8384776310850237 -1.592168332809066 1.0807611844574883
      vertex 1.8384776310850237 -6.741693263929093 10
      vertex 2.0627186847572117 -6.446438743051327 10
    endloop
  endfacet
  facet normal -0.8314696123025465 0.4811379353814141 0.27778511650980026
    outer loop
      vertex 2.0627186847572117 -1.3707274421507398 1.2086101422886633
      vertex 2.0627186847572117 -6.446438743051327 10
      vertex 2.25166604983954 -6.1199128534100335 10
    endloop
  endfacet
  facet normal -0.8968727415326879 0.3830332415362017 0.221144345109501
    outer loop
      vertex 2.25166604983954 -1.12583302491977 1.35
      vertex 2.25166604983954 -6.1199128534100335 10
      vertex 2.4020867845293457 -5.767702543507058 10
    endloop
  endfacet
  facet normal -0.9469301294951056 0.2783747427314248 0.16071973265158093
    outer loop
      vertex 2.4020867845293457 -0.8616752924925386 1.5025115379253833
      vertex 2.4020867845293457 -5.767702543507058 10
      vertex 2.511407148351578 -5.395834229395986 10
    endloop
  endfacet
  facet normal -0.0654031292301424 0.8641711769176167 0.4989294616193018
    outer loop
      vertex 0.3393680997721341 -4.131237517903623 4
      vertex 0 -7.62102355330306 10
      vertex 0.3393680997721341 -7.595339133041378 10
    endloop
  endfacet
  facet normal -0.19509032201612622 0.8493849684870417 0.49039264020161555
    outer loop
      vertex 0.6729295172665539 -4.05462372467032 4
      vertex 0.3393680997721341 -7.595339133041378 10
      vertex 0.6729295172665539 -7.518725339808075 10
    endloop
  endfacet
  facet normal -0.32143946530316303 0.8200655477516492 0.4734650647475527
    outer loop
      vertex 0.9949769241492334 -3.928391441708972 4
      vertex 0.6729295172665539 -7.518725339808075 10
      vertex 0.9949769241492334 -7.392493056846727 10
    endloop
  endfacet
  facet normal -0.4422886902190022 0.7767145781291025 0.4484363707663441
    outer loop
      vertex 1.3 -3.754700538379251 4
      vertex 0.9949769241492334 -7.392493056846727 10
      vertex 1.3 -7.218802153517006 10
    endloop
  endfacet
  facet normal -0.5555702330196016 0.7200738067288026 0.41573480615127284
    outer loop
      vertex 1.3 -3.754700538379251 4
      vertex 1.3 -7.218802153517006 10
      vertex 1.5827797154226737 -7.0006245293311 10
    endloop
  endfacet
  facet normal -0.9807852804032308 0.16895317489845224 0.09754516100806336
    outer loop
      vertex 2.511407148351578 -0.5827740569092347 1.663535241366723
      vertex 2.511407148351578 -5.395834229395986 10
      vertex 2.577756639571907 -5.010670681032632 10
    endloop
  endfacet
  facet normal -0.9978589232386035 0.05664077140030127 0.03270156461507199
    outer loop
      vertex 2.577756639571907 -0.2939013956367201 1.830315950113933
      vertex 2.577756639571907 -5.010670681032632 10
      vertex 2.6 -4.618802153517007 10
    endloop
  endfacet
  facet normal -0.9469301294951051 -0.27837474273142604 -0.1607197326515816
    outer loop
      vertex 2.511407148351578 0.5827740569092347 2.336464758633277
      vertex 2.511407148351578 -3.8417700776380257 10
      vertex 2.4020867845293457 -3.469901763526955 10
    endloop
  endfacet
  facet normal -0.9978589232386035 -0.05664077140030099 -0.03270156461507184
    outer loop
      vertex 2.6 0 2
      vertex 2.6 -4.618802153517007 10
      vertex 2.577756639571907 -4.2269336260013795 10
    endloop
  endfacet
  facet normal -0.9807852804032309 -0.16895317489845227 -0.09754516100806332
    outer loop
      vertex 2.577756639571907 0.2939013956367201 2.169684049886067
      vertex 2.577756639571907 -4.2269336260013795 10
      vertex 2.511407148351578 -3.8417700776380257 10
    endloop
  endfacet
  facet normal -0.831469612302546 -0.4811379353814147 -0.27778511650980064
    outer loop
      vertex 2.0627186847572117 1.3707274421507398 2.7913898577113367
      vertex 2.25166604983954 1.12583302491977 2.65
      vertex 2.0627186847572117 -2.7911655639826876 10
    endloop
  endfacet
  facet normal -0.8968727415326878 -0.3830332415362018 -0.22114434510950107
    outer loop
      vertex 2.25166604983954 1.12583302491977 2.65
      vertex 2.4020867845293457 0.8616752924925386 2.4974884620746165
      vertex 2.25166604983954 -3.1176914536239795 10
    endloop
  endfacet
  facet normal -0.896872741532688 -0.3830332415362014 -0.22114434510950082
    outer loop
      vertex 2.4020867845293457 0.8616752924925386 2.4974884620746165
      vertex 2.4020867845293457 -3.469901763526955 10
      vertex 2.25166604983954 -3.1176914536239795 10
    endloop
  endfacet
  facet normal -0.0654031292301424 -0.8641711769176167 -0.4989294616193018
    outer loop
      vertex 0 2.25166604983954 3.3
      vertex 0.3393680997721341 -1.6422651739926353 10
      vertex 0 -1.6165807537309527 10
    endloop
  endfacet
  facet normal -0.19509032201612805 -0.8493849684870416 -0.49039264020161527
    outer loop
      vertex 0.3393680997721341 2.232402734643278 3.2888783197859537
      vertex 0.6729295172665539 -1.7188789672259392 10
      vertex 0.3393680997721341 -1.6422651739926353 10
    endloop
  endfacet
  facet normal -0.3214394653031608 -0.8200655477516499 -0.4734650647475531
    outer loop
      vertex 0.6729295172665539 2.174942389718301 3.255703574175789
      vertex 0.9949769241492334 -1.8451112501872862 10
      vertex 0.6729295172665539 -1.7188789672259392 10
    endloop
  endfacet
  facet normal -0.7518398074789775 -0.5710102257556168 -0.3296729075500344
    outer loop
      vertex 2.0627186847572117 1.3707274421507398 2.7913898577113367
      vertex 2.0627186847572117 -2.7911655639826876 10
      vertex 1.8384776310850237 -2.4959110431049187 10
    endloop
  endfacet
  facet normal -0.6593458151000697 -0.6511123728531953 -0.37591990373948836
    outer loop
      vertex 1.8384776310850237 1.592168332809066 2.9192388155425117
      vertex 1.8384776310850237 -2.4959110431049187 10
      vertex 1.5827797154226737 -2.2369797777029126 10
    endloop
  endfacet
  facet normal -0.44228869021900125 -0.7767145781291029 -0.4484363707663442
    outer loop
      vertex 0.9949769241492334 2.0802681774972904 3.2010433922646726
      vertex 1.3 -2.0188021535170066 10
      vertex 0.9949769241492334 -1.8451112501872862 10
    endloop
  endfacet
  facet normal -0.5555702330196026 -0.7200738067288022 -0.4157348061512725
    outer loop
      vertex 1.3 1.9499999999999997 3.1258330249197703
      vertex 1.5827797154226737 -2.2369797777029126 10
      vertex 1.3 -2.0188021535170066 10
    endloop
  endfacet
  facet normal -0.8314696123025448 -0.4811379353814162 -0.2777851165098014
    outer loop
      vertex 2.25166604983954 1.12583302491977 2.65
      vertex 2.25166604983954 -3.1176914536239795 10
      vertex 2.0627186847572117 -2.7911655639826876 10
    endloop
  endfacet
  facet normal 6.458875555924728e-16 -0.4999999999999999 0.8660254037844386
    outer loop
      vertex 1.5 -1.7320508075688772 1
      vertex 1.5827797154226737 1.7863667818605704 3.0313593423786056
      vertex 1.5 0 1.9999999999999998
    endloop
  endfacet
  facet normal -1.7541941687369353e-16 -0.49999999999999994 0.8660254037844387
    outer loop
      vertex 1.8384776310850237 -1.592168332809066 1.0807611844574883
      vertex 2.0627186847572117 1.3707274421507398 2.7913898577113367
      vertex 1.8384776310850237 1.592168332809066 2.9192388155425117
    endloop
  endfacet
  facet normal -9.694964358273586e-16 -0.5 0.8660254037844387
    outer loop
      vertex 1.5827797154226737 -1.7863667818605704 0.9686406576213942
      vertex 1.8384776310850237 1.592168332809066 2.9192388155425117
      vertex 1.5827797154226737 1.7863667818605704 3.0313593423786056
    endloop
  endfacet
  facet normal -1.2888135580729103e-15 -0.49999999999999994 0.8660254037844387
    outer loop
      vertex 2.4020867845293457 -0.8616752924925386 1.5025115379253833
      vertex 2.511407148351578 0.5827740569092347 2.336464758633277
      vertex 2.4020867845293457 0.8616752924925386 2.4974884620746165
    endloop
  endfacet
  facet normal 1.084403788664876e-15 -0.5 0.8660254037844386
    outer loop
      vertex 2.25166604983954 -1.12583302491977 1.35
      vertex 2.4020867845293457 0.8616752924925386 2.4974884620746165
      vertex 2.25166604983954 1.12583302491977 2.65
    endloop
  endfacet
  facet normal -2.172074144002514e-16 -0.4999999999999999 0.8660254037844386
    outer loop
      vertex 2.0627186847572117 -1.3707274421507398 1.2086101422886633
      vertex 2.25166604983954 1.12583302491977 2.65
      vertex 2.0627186847572117 1.3707274421507398 2.7913898577113367
    endloop
  endfacet
  facet normal -3.6924309973447084e-16 -0.49999999999999994 0.8660254037844387
    outer loop
      vertex 2.577756639571907 -0.2939013956367201 1.830315950113933
      vertex 2.6 0 2
      vertex 2.577756639571907 0.2939013956367201 2.169684049886067
    endloop
  endfacet
  facet normal 1.1162367932421392e-15 -0.5000000000000001 0.8660254037844387
    outer loop
      vertex 2.511407148351578 -0.5827740569092347 1.663535241366723
      vertex 2.577756639571907 0.2939013956367201 2.169684049886067
      vertex 2.511407148351578 0.5827740569092347 2.336464758633277
    endloop
  endfacet
  facet normal -2.7667625897639393e-16 -0.5000000000000003 0.8660254037844384
    outer loop
      vertex -0.6729295172665539 2.174942389718301 3.255703574175789
      vertex 1.5 0 1.9999999999999998
      vertex -0.3393680997721341 2.232402734643278 3.2888783197859537
    endloop
  endfacet
  facet normal 8.475225524092429e-16 -0.49999999999999956 0.8660254037844388
    outer loop
      vertex -0.3393680997721341 2.232402734643278 3.2888783197859537
      vertex 1.5 0 1.9999999999999998
      vertex 0 2.25166604983954 3.3
    endloop
  endfacet
  facet normal -9.127336897902179e-16 -0.5000000000000006 0.8660254037844384
    outer loop
      vertex 0 2.25166604983954 3.3
      vertex 1.5 0 1.9999999999999998
      vertex 0.3393680997721341 2.232402734643278 3.2888783197859537
    endloop
  endfacet
  facet normal 3.419669402857766e-16 -0.49999999999999994 0.8660254037844386
    outer loop
      vertex 0.3393680997721341 2.232402734643278 3.2888783197859537
      vertex 1.5 0 1.9999999999999998
      vertex 0.6729295172665539 2.174942389718301 3.255703574175789
    endloop
  endfacet
  facet normal 1.4612712571261252e-15 -0.5000000000000001 0.8660254037844386
    outer loop
      vertex 1.5 0 1.9999999999999998
      vertex 1.5827797154226737 1.7863667818605704 3.0313593423786056
      vertex 1.3 1.9499999999999997 3.1258330249197703
    endloop
  endfacet
  facet normal -1.4478774055851984e-15 -0.5000000000000002 0.8660254037844385
    outer loop
      vertex 0.9949769241492334 2.0802681774972904 3.2010433922646726
      vertex 1.5 0 1.9999999999999998
      vertex 1.3 1.9499999999999997 3.1258330249197703
    endloop
  endfacet
  facet normal 1.1334804984523529e-15 -0.49999999999999983 0.8660254037844388
    outer loop
      vertex 0.6729295172665539 2.174942389718301 3.255703574175789
      vertex 1.5 0 1.9999999999999998
      vertex 0.9949769241492334 2.0802681774972904 3.2010433922646726
    endloop
  endfacet
  facet normal -0.06540312923014266 -0.8641711769176168 -0.4989294616193018
    outer loop
      vertex 0 2.25166604983954 3.3
      vertex 0.3393680997721341 2.232402734643278 3.2888783197859537
      vertex 0.3393680997721341 -1.6422651739926353 10
    endloop
  endfacet
  facet normal -0.19509032201612647 -0.8493849684870419 -0.49039264020161555
    outer loop
      vertex 0.3393680997721341 2.232402734643278 3.2888783197859537
      vertex 0.6729295172665539 2.174942389718301 3.255703574175789
      vertex 0.6729295172665539 -1.7188789672259392 10
    endloop
  endfacet
  facet normal -0.3214394653031629 -0.8200655477516493 -0.47346506474755273
    outer loop
      vertex 0.6729295172665539 2.174942389718301 3.255703574175789
      vertex 0.9949769241492334 2.0802681774972904 3.2010433922646726
      vertex 0.9949769241492334 -1.8451112501872862 10
    endloop
  endfacet
  facet normal -0.5555702330196016 -0.7200738067288027 -0.41573480615127284
    outer loop
      vertex 1.3 1.9499999999999997 3.1258330249197703
      vertex 1.5827797154226737 1.7863667818605704 3.0313593423786056
      vertex 1.5827797154226737 -2.2369797777029126 10
    endloop
  endfacet
  facet normal -0.44228869021900163 -0.7767145781291027 -0.44843637076634413
    outer loop
      vertex 0.9949769241492334 2.0802681774972904 3.2010433922646726
      vertex 1.3 1.9499999999999997 3.1258330249197703
      vertex 1.3 -2.0188021535170066 10
    endloop
  endfacet
  facet normal -0.7518398074789775 -0.5710102257556168 -0.32967290755003437
    outer loop
      vertex 1.8384776310850237 1.592168332809066 2.9192388155425117
      vertex 2.0627186847572117 1.3707274421507398 2.7913898577113367
      vertex 1.8384776310850237 -2.4959110431049187 10
    endloop
  endfacet
  facet normal -0.6593458151000687 -0.6511123728531961 -0.37591990373948875
    outer loop
      vertex 1.5827797154226737 1.7863667818605704 3.0313593423786056
      vertex 1.8384776310850237 1.592168332809066 2.9192388155425117
      vertex 1.5827797154226737 -2.2369797777029126 10
    endloop
  endfacet
  facet normal 0 0 1
    outer loop
      vertex -1.3 -2.022649730810374 1
      vertex -1.5 -8 1
      vertex -0.9949769241492334 -2.196340634140095 1
    endloop
  endfacet
  facet normal 0 0 1
    outer loop
      vertex -0.9949769241492334 -2.196340634140095 1
      vertex -1.5 -8 1
      vertex -0.6729295172665539 -2.322572917101442 1
    endloop
  endfacet
  facet normal 0 0 1
    outer loop
      vertex -0.6729295172665539 -2.322572917101442 1
      vertex -1.5 -8 1
      vertex -0.3393680997721341 -2.399186710334745 1
    endloop
  endfacet
  facet normal 0 0 1
    outer loop
      vertex -0.3393680997721341 -2.399186710334745 1
      vertex -1.5 -8 1
      vertex 0 -2.424871130596428 1
    endloop
  endfacet
  facet normal 0 0 1
    outer loop
      vertex 0 -2.424871130596428 1
      vertex -1.5 -8 1
      vertex 0.3393680997721341 -2.399186710334745 1
    endloop
  endfacet
  facet normal 0 0 1
    outer loop
      vertex 0.3393680997721341 -2.399186710334745 1
      vertex -1.5 -8 1
      vertex 0.6729295172665539 -2.322572917101442 1
    endloop
  endfacet
  facet normal 1 0 0
    outer loop
      vertex -1.5 -1.8683404842225886 1
      vertex -1.5 -8 4
      vertex -1.5 -8 1
    endloop
  endfacet
  facet normal 0 0 -1
    outer loop
      vertex -1.3 -3.754700538379251 4
      vertex 1.5 -8 4
      vertex -1.5 -8 4
    endloop
  endfacet
  facet normal 1 0 0
    outer loop
      vertex -1.5 -3.6003912917914658 4
      vertex -1.5 -8 4
      vertex -1.5 -1.8683404842225886 1
    endloop
  endfacet
  facet normal 0 0 -1
    outer loop
      vertex -1.5 -3.6003912917914658 4
      vertex -1.3 -3.754700538379251 4
      vertex -1.5 -8 4
    endloop
  endfacet
  facet normal 0 0 -1
    outer loop
      vertex -0.9949769241492334 -3.9283914417089725 4
      vertex 1.5 -8 4
      vertex -1.3 -3.754700538379251 4
    endloop
  endfacet
  facet normal 0 0 -1
    outer loop
      vertex -0.9949769241492334 -3.9283914417089725 4
      vertex -0.6729295172665539 -4.05462372467032 4
      vertex 1.5 -8 4
    endloop
  endfacet
  facet normal 0 0 1
    outer loop
      vertex -1.5 -1.8683404842225886 1
      vertex -1.5 -8 1
      vertex -1.3 -2.022649730810374 1
    endloop
  endfacet
  facet normal 0 0 1
    outer loop
      vertex -1.5 -1.7320508075688772 1
      vertex 1.5 0 1
      vertex -1.5 0 1
    endloop
  endfacet
  facet normal 1 0 0
    outer loop
      vertex -1.5 -1.7320508075688772 1
      vertex -1.5 0 1
      vertex -1.5 0 2
    endloop
  endfacet
  facet normal 0 -1 0
    outer loop
      vertex -1.5 0 1
      vertex 1.5 0 1.9999999999999998
      vertex -1.5 0 2
    endloop
  endfacet
  facet normal 0 0 1
    outer loop
      vertex 1.3 -2.022649730810374 1
      vertex -1.5 -8 1
      vertex 1.5 -8 1
    endloop
  endfacet
  facet normal 0 0 1
    outer loop
      vertex 0.6729295172665539 -2.322572917101442 1
      vertex -1.5 -8 1
      vertex 0.9949769241492334 -2.196340634140095 1
    endloop
  endfacet
  facet normal 0 0 1
    outer loop
      vertex 0.9949769241492334 -2.196340634140095 1
      vertex -1.5 -8 1
      vertex 1.3 -2.022649730810374 1
    endloop
  endfacet
  facet normal -1 0 0
    outer loop
      vertex 1.5 -3.6003912917914658 4
      vertex 1.5 -1.8683404842225886 1
      vertex 1.5 -8 1
    endloop
  endfacet
  facet normal -1 0 0
    outer loop
      vertex 1.5 -3.6003912917914658 4
      vertex 1.5 -8 1
      vertex 1.5 -8 4
    endloop
  endfacet
  facet normal 0 0 -1
    outer loop
      vertex -0.6729295172665539 -4.05462372467032 4
      vertex -0.3393680997721341 -4.131237517903623 4
      vertex 1.5 -8 4
    endloop
  endfacet
  facet normal 0 0 -1
    outer loop
      vertex -0.3393680997721341 -4.131237517903623 4
      vertex 0 -4.156921938165305 4
      vertex 1.5 -8 4
    endloop
  endfacet
  facet normal 0 0 -1
    outer loop
      vertex 0 -4.156921938165305 4
      vertex 0.3393680997721341 -4.131237517903623 4
      vertex 1.5 -8 4
    endloop
  endfacet
  facet normal 0 0 -1
    outer loop
      vertex 0.3393680997721341 -4.131237517903623 4
      vertex 0.6729295172665539 -4.05462372467032 4
      vertex 1.5 -8 4
    endloop
  endfacet
  facet normal 0 0 -1
    outer loop
      vertex 0.6729295172665539 -4.05462372467032 4
      vertex 0.9949769241492334 -3.928391441708972 4
      vertex 1.5 -8 4
    endloop
  endfacet
  facet normal 0 0 -1
    outer loop
      vertex 0.9949769241492334 -3.928391441708972 4
      vertex 1.3 -3.754700538379251 4
      vertex 1.5 -8 4
    endloop
  endfacet
  facet normal 0 0 -1
    outer loop
      vertex 1.3 -3.754700538379251 4
      vertex 1.5 -3.6003912917914658 4
      vertex 1.5 -8 4
    endloop
  endfacet
  facet normal 0 0 1
    outer loop
      vertex 1.3 -2.022649730810374 1
      vertex 1.5 -8 1
      vertex 1.5 -1.8683404842225886 1
    endloop
  endfacet
  facet normal 0 0 1
    outer loop
      vertex -1.5 -1.7320508075688772 1
      vertex 1.5 -1.7320508075688772 1
      vertex 1.5 0 1
    endloop
  endfacet
  facet normal -1 0 0
    outer loop
      vertex 1.5 -1.7320508075688772 1
      vertex 1.5 0 1.9999999999999998
      vertex 1.5 0 1
    endloop
  endfacet
  facet normal 0 -1 0
    outer loop
      vertex -1.5 0 1
      vertex 1.5 0 1
      vertex 1.5 0 1.9999999999999998
    endloop
  endfacet
endsolid OpenSCAD_Model
